<svg width="133" height="73" viewBox="0 0 133 73" fill="none" xmlns="http://www.w3.org/2000/svg">
<path d="M32.6422 15.8492C32.6422 12.809 30.2852 11.0327 25.8786 10.5203V10.0421C29.7728 9.2564 31.5491 7.65089 31.5491 4.95227C31.5491 2.21949 29.1238 0.135742 23.6582 0.135742H12.3172V1.46797L15.5624 2.25365V19.7776L12.3172 20.5633V21.8955H24.5464C29.7045 21.8955 32.6422 19.6068 32.6422 15.8492ZM20.6522 9.76879V1.84373C20.8913 1.77541 21.8478 1.77541 22.1894 1.77541C24.8197 1.84373 26.4935 2.86852 26.4935 5.6013C26.4935 8.2316 24.888 9.63215 22.2918 9.73463L20.6522 9.76879ZM27.1084 15.9517C27.1084 19.0261 25.5029 20.29 22.6334 20.29C21.9161 20.29 21.1987 20.2217 20.6522 20.085V11.3401L22.0527 11.3743C25.4345 11.4768 27.1084 12.9115 27.1084 15.9517Z" fill="#F2F4F8"/>
<path d="M46.2066 19.9484V6.89937L48.8027 6.18202V4.95227H38.8964V6.18202L41.4926 6.89937V19.9484L38.8964 20.6999V21.8955H48.8027V20.6999L46.2066 19.9484Z" fill="#F2F4F8"/>
<path d="M57.2068 6.89937V19.9826L54.7132 20.6999V21.8955H63.5947C69.7093 21.8955 73.6718 18.4454 73.6718 13.2872C73.6718 8.19744 69.9143 4.95227 63.868 4.95227H54.7132V6.18202L57.2068 6.89937ZM68.4795 13.4239C68.4795 18.1721 66.6008 20.0509 63.6972 20.1534L61.9209 20.1875V6.66025L63.3214 6.69441C66.3958 6.76273 68.4795 8.77816 68.4795 13.4239Z" fill="#F2F4F8"/>
<path d="M95.1258 4.95227H79.4123V6.18202L81.9059 6.89937V19.9484L79.4123 20.6999V21.8955H95.6382L96.253 16.1567L95.1941 15.9859L93.1786 18.6845C92.4955 19.5385 91.4024 20.0509 90.036 20.085L86.62 20.1192V14.2096H87.474C88.9087 14.2096 89.626 14.8244 90.2068 16.1225L90.5142 16.7715H91.7098V9.97375H90.5142L90.2409 10.5545C89.7285 11.8184 88.9087 12.5016 87.474 12.5016H86.62V6.72857L89.3186 6.79689C90.9924 6.83105 91.9831 7.37761 92.7346 8.43656L94.4426 10.8277L95.5357 10.6569L95.1258 4.95227Z" fill="#F2F4F8"/>
<path d="M104.136 19.5726L101.711 20.6999V21.8955H109.055V20.6999L106.459 19.5726V9.42719H106.835L113.052 18.8553L115.102 22.0663H119.508V7.27513L121.934 6.18202V4.95227H114.589V6.18202L117.151 7.27513V16.4299H116.878L111.242 7.85585L109.465 4.95227H101.848V6.21618L104.136 7.13849V19.5726Z" fill="#F2F4F8"/>
<path d="M18.4273 38.4364H9.34076V31.1945L12.2443 30.4089V29.0766H0.869141V30.4089L4.08016 31.1945V48.7185L0.869141 49.5042V50.8364H12.2443V49.5042L9.34076 48.7185V40.6568H18.4273V48.7185L15.5237 49.5042V50.8364H26.8989V49.5042L23.6879 48.7185V31.1945L26.8989 30.4089V29.0766H15.5237V30.4089L18.4273 31.1945V38.4364Z" fill="#F2F4F8"/>
<path d="M42.1464 44.1411H37.2615L39.5161 37.6166H39.8918L42.1464 44.1411ZM36.6467 45.9516H42.7613L43.7519 48.8893L41.5657 49.7091V50.8364H50.618V49.6408L48.5343 48.7527L43.0345 33.654H39.0037L33.1965 48.5477L30.9078 49.6408V50.8364H37.8423V49.7091L35.6902 48.7527L36.6467 45.9516Z" fill="#F2F4F8"/>
<path d="M72.1819 38.129C72.1819 35.3962 70.0298 33.8932 65.8623 33.8932H55.307V35.1229L57.8006 35.8403V48.8893L55.307 49.6408V50.8364H64.94V49.7433L62.5147 48.9918V43.7312H62.9929C64.7009 43.7312 65.3158 43.9703 65.8965 45.4392L66.8871 48.0011C67.707 50.1532 68.5268 50.8364 70.2689 50.8364H74.3339V49.675C73.4116 49.47 72.8651 49.2651 72.3868 48.7185C71.9086 48.1719 71.567 47.4887 70.8838 45.6783C70.2006 44.0045 69.1075 43.2529 66.9554 42.9455V42.5697C70.5081 42.0232 72.1819 40.4177 72.1819 38.129ZM67.2287 38.6755C67.2287 40.7593 65.8282 41.9207 63.8127 41.9549L62.5147 41.989V35.7378C62.6513 35.7036 63.5736 35.7036 63.8811 35.7036C66.1014 35.7719 67.2287 36.7284 67.2287 38.6755Z" fill="#F2F4F8"/>
<path d="M95.6467 38.129C95.6467 35.3962 93.4946 33.8932 89.3271 33.8932H78.7718V35.1229L81.2654 35.8403V48.8893L78.7718 49.6408V50.8364H88.4048V49.7433L85.9795 48.9918V43.7312H86.4577C88.1657 43.7312 88.7806 43.9703 89.3613 45.4392L90.3519 48.0011C91.1718 50.1532 91.9916 50.8364 93.7337 50.8364H97.7988V49.675C96.8764 49.47 96.3299 49.2651 95.8517 48.7185C95.3734 48.1719 95.0318 47.4887 94.3486 45.6783C93.6654 44.0045 92.5723 43.2529 90.4203 42.9455V42.5697C93.9729 42.0232 95.6467 40.4177 95.6467 38.129ZM90.6935 38.6755C90.6935 40.7593 89.293 41.9207 87.2776 41.9549L85.9795 41.989V35.7378C86.1161 35.7036 87.0384 35.7036 87.3459 35.7036C89.5663 35.7719 90.6935 36.7284 90.6935 38.6755Z" fill="#F2F4F8"/>
<path d="M109.923 48.8893V35.8403L112.519 35.1229V33.8932H102.612V35.1229L105.208 35.8403V48.8893L102.612 49.6408V50.8364H112.519V49.6408L109.923 48.8893Z" fill="#F2F4F8"/>
<path d="M132.81 45.61C132.81 42.843 130.932 41.6474 128.848 40.8276C127.755 40.3835 126.627 40.0419 125.671 39.7003C123.963 39.0171 123.177 38.4364 123.177 37.1383C123.177 36.0452 124.031 35.0546 125.534 35.0546C127.14 35.0546 128.677 36.0452 130.351 39.1196L132.025 38.9488L131.615 33.3125H130.283L129.668 34.3372C128.54 33.7907 127.037 33.3808 125.466 33.3808C122.357 33.3808 119.351 35.3962 119.351 38.9146C119.351 41.4766 121.025 42.7405 123.007 43.5604C124.031 44.0045 125.124 44.3119 126.115 44.6535C128.062 45.3367 129.019 45.8832 129.019 47.3521C129.019 48.7527 127.926 49.7091 126.286 49.7091C124.27 49.7091 122.46 48.5135 120.581 44.9268L118.907 45.0292L119.146 51.3488H120.479L121.094 50.324C122.494 50.9047 124.441 51.3488 126.252 51.3488C129.77 51.3488 132.81 49.2992 132.81 45.61Z" fill="#F2F4F8"/>
<path d="M24.9922 72.4604H28.1536C30.2612 72.4604 31.4954 71.1977 31.4954 69.128C31.4954 67.0489 30.2612 65.8147 28.1536 65.8147H24.9922V72.4604ZM26.2074 71.3591V66.916H28.1441C29.4922 66.916 30.2517 67.6565 30.2517 69.147C30.2517 70.6376 29.4922 71.3591 28.1441 71.3591H26.2074Z" fill="#F2F4F8"/>
<path d="M35.0775 72.4604H40.6788L40.7263 71.3591H36.2832V69.5648H39.7769V68.473H36.2832V66.916H40.5744L40.5364 65.8147H35.0775V72.4604Z" fill="#F2F4F8"/>
<path d="M44.2635 72.4604H45.4502V67.7135H45.5167L47.985 72.0142H48.08L50.5674 67.7135H50.6338V72.4604H51.8395V65.8147H50.368L48.061 69.9255L45.7065 65.8147H44.2635V72.4604Z" fill="#F2F4F8"/>
<path d="M59.0508 72.6218C61.2818 72.6218 62.6869 71.2452 62.6869 69.1375C62.6869 67.0204 61.2818 65.6533 59.0508 65.6533C56.8198 65.6533 55.4052 67.0299 55.4052 69.1375C55.4052 71.2547 56.8198 72.6218 59.0508 72.6218ZM59.0413 71.5205C57.5318 71.5205 56.6584 70.6091 56.6584 69.1375C56.6584 67.666 57.5508 66.7546 59.0603 66.7546C60.5698 66.7546 61.4432 67.666 61.4432 69.1375C61.4432 70.6091 60.5508 71.5205 59.0413 71.5205Z" fill="#F2F4F8"/>
<path d="M69.4502 72.6028C70.6274 72.6028 71.5388 72.204 72.042 71.8338V70.5901H72.0325C71.3395 71.1123 70.5705 71.5015 69.5262 71.5015C67.9502 71.5015 67.1052 70.4952 67.1052 69.1565C67.1052 67.7989 68.0072 66.7736 69.5452 66.7736C70.599 66.7736 71.33 67.2293 72.0325 67.7135H72.042V66.4698C71.5199 66.071 70.6559 65.6723 69.5736 65.6723C67.1527 65.6723 65.8521 67.2957 65.8521 69.166C65.8521 71.0268 66.9723 72.6028 69.4502 72.6028Z" fill="#F2F4F8"/>
<path d="M75.6597 72.4604H76.875V70.3717H78.8781L80.4161 72.4604H81.8497L80.0839 70.1534C81.0807 69.8781 81.6029 69.1375 81.6029 68.0458C81.6029 66.6122 80.7864 65.8147 79.125 65.8147H75.6597V72.4604ZM76.875 69.2989V66.916H79.087C80.0269 66.916 80.3687 67.4192 80.3687 68.1027C80.3687 68.7768 80.0269 69.2989 79.087 69.2989H76.875Z" fill="#F2F4F8"/>
<path d="M84.5145 72.4604H85.7677L86.4322 70.7705H89.8215L90.4861 72.4604H91.7583L89.1285 65.8147H87.1538L84.5145 72.4604ZM87.9417 66.954H88.3215L89.4038 69.7072H86.85L87.9417 66.954Z" fill="#F2F4F8"/>
<path d="M96.2733 72.4604H97.4885V66.935H100.023L99.9759 65.8147H93.7859L93.7384 66.935H96.2733V72.4604Z" fill="#F2F4F8"/>
<path d="M105.84 72.6123C108.147 72.6123 108.688 71.3876 108.688 70.5331C108.688 69.185 107.491 68.8337 106.162 68.5964C104.966 68.3685 104.188 68.2546 104.188 67.6375C104.188 67.1249 104.691 66.7736 105.716 66.7736C106.58 66.7736 107.539 67.0489 108.308 67.5426H108.317V66.2989C107.605 65.8907 106.656 65.6628 105.811 65.6628C103.846 65.6628 102.915 66.6597 102.915 67.7609C102.915 69.0046 104.093 69.3749 105.412 69.6122C106.998 69.8876 107.416 70.0679 107.416 70.6091C107.416 71.1597 106.874 71.5015 105.849 71.5015C104.89 71.5015 103.798 71.1882 102.868 70.666H102.859V71.9097C103.637 72.3085 104.596 72.6123 105.84 72.6123Z" fill="#F2F4F8"/>
<path fill-rule="evenodd" clip-rule="evenodd" d="M120.006 58.6945H13.6758V57.9824H120.006V58.6945Z" fill="#F2F4F8"/>
</svg>
