<svg width="33" height="37" viewBox="0 0 33 37" fill="none" xmlns="http://www.w3.org/2000/svg">
<path fill-rule="evenodd" clip-rule="evenodd" d="M19.2193 36.6348L17.9376 28.4108H7.16901L6.01099 36.6348H1.13642V30.019C0.991131 30.231 0.816135 30.4209 0.616795 30.5831C0.240023 30.1081 0.0405344 29.5167 0.0526315 28.9106C0.0501645 28.8744 0.0501645 28.838 0.0526315 28.8018C0.0642032 28.6909 0.10043 28.584 0.158658 28.489C0.216886 28.394 0.29564 28.3132 0.38915 28.2525L0.691027 21.2953C0.691027 21.2953 0.745464 19.2814 2.2598 19.4645C2.29591 19.4593 2.33256 19.4593 2.36867 19.4645C3.01856 18.5094 3.89226 17.7279 4.91356 17.1879C5.93487 16.648 7.07278 16.3661 8.22805 16.3669H18.1999L20.9316 10.8694C21.3865 9.94314 22.1157 9.17948 23.02 8.68226L22.9876 8.62846C21.7983 6.65676 20.7511 4.92061 21.0405 0.997664C22.7874 1.7399 24.6927 4.55049 25.1183 6.36649C25.3311 4.49111 26.2516 1.86855 27.271 0.878906C28.3202 2.53656 28.2113 5.57477 27.5135 8.47444C28.1805 8.76952 28.7749 9.2067 29.2553 9.75541C29.7357 10.3041 30.0905 10.9511 30.2948 11.6512L32.492 17.6386C32.7181 18.0261 32.8376 18.4665 32.8384 18.9152C32.8097 19.5619 32.5326 20.1727 32.0647 20.6201C31.5968 21.0676 30.9744 21.3174 30.3269 21.3174C29.6795 21.3174 29.057 21.0676 28.5891 20.6201C28.1213 20.1727 27.8441 19.5619 27.8154 18.9152L25.727 17.5346L24.178 22.0524L24.0147 36.6348H19.2193ZM7.72119 22.0635L7.32647 20.8486L6.93175 22.0635H5.65441L6.6878 22.8143L6.29308 24.0291L7.32647 23.2783L8.35986 24.0291L7.96514 22.8143L8.99854 22.0635H7.72119ZM13.4422 22.0635L13.0449 20.8486L12.6476 22.0635H11.362L12.4021 22.8143L12.0048 24.0291L13.0449 23.2783L14.085 24.0291L13.6877 22.8143L14.7278 22.0635H13.4422ZM18.764 20.8486L19.1587 22.0635H20.436L19.4026 22.8143L19.7974 24.0291L18.764 23.2783L17.7306 24.0291L18.1253 22.8143L17.0919 22.0635H18.3693L18.764 20.8486Z" fill="#F2F4F8"/>
</svg>
