<svg width="24" height="24" viewBox="0 0 24 24" fill="none" xmlns="http://www.w3.org/2000/svg">
<path d="M23.6484 12.4492C23.6484 6.0591 18.4997 0.878909 12.1484 0.878908C5.79716 0.878907 0.648437 6.05909 0.648435 12.4492C0.648434 18.2242 4.85379 23.0109 10.3516 23.8789L10.3516 15.7937L7.43164 15.7937L7.43164 12.4492L10.3516 12.4492L10.3516 9.90011C10.3516 7.00031 12.0685 5.39855 14.6953 5.39855C15.9531 5.39855 17.2695 5.62453 17.2695 5.62453L17.2695 8.47191L15.8195 8.47191C14.3909 8.4719 13.9453 9.36386 13.9453 10.2798L13.9453 12.4492L17.1348 12.4492L16.6249 15.7937L13.9453 15.7937L13.9453 23.8789C19.4431 23.0109 23.6484 18.2242 23.6484 12.4492Z" fill="#F2F4F8"/>
</svg>
