<svg width="23" height="24" viewBox="0 0 23 24" fill="none" xmlns="http://www.w3.org/2000/svg">
<path d="M11.3502 2.91659C14.3675 2.91659 14.7245 2.92825 15.9163 2.98253C17.0179 3.03276 17.6162 3.21666 18.0145 3.37141C18.5059 3.55234 18.9504 3.84127 19.3152 4.21689C19.6909 4.58173 19.9798 5.02624 20.1607 5.51764C20.3155 5.91593 20.4994 6.51428 20.5496 7.61587C20.6039 8.80762 20.6155 9.16466 20.6155 12.1819C20.6155 15.1992 20.6039 15.5562 20.5496 16.748C20.4994 17.8496 20.3155 18.4479 20.1607 18.8462C19.9725 19.3334 19.6846 19.7759 19.3152 20.1452C18.9459 20.5145 18.5035 20.8025 18.0163 20.9907C17.618 21.1454 17.0197 21.3293 15.9181 21.3795C14.7268 21.4338 14.3693 21.4455 11.352 21.4455C8.33472 21.4455 7.97724 21.4338 6.78594 21.3795C5.68435 21.3293 5.086 21.1454 4.68771 20.9907C4.19631 20.8097 3.75181 20.5208 3.38696 20.1452C3.01134 19.7803 2.72241 19.3358 2.54148 18.8444C2.38673 18.4461 2.20284 17.8478 2.1526 16.7462C2.09833 15.5544 2.08667 15.1974 2.08667 12.1801C2.08667 9.16286 2.09833 8.80583 2.1526 7.61407C2.20284 6.51248 2.38674 5.91413 2.54148 5.51584C2.72241 5.02445 3.01134 4.57994 3.38696 4.21509C3.75181 3.83947 4.19632 3.55054 4.68771 3.36961C5.08601 3.21487 5.68435 3.03097 6.78594 2.98073C7.97769 2.92646 8.33473 2.9148 11.352 2.9148L11.3502 2.91659ZM11.352 0.878908C8.28315 0.878908 7.8983 0.891915 6.6931 0.947084C5.48789 1.00225 4.66708 1.19467 3.94943 1.47366C3.19526 1.75756 2.512 2.20235 1.94718 2.7771C1.37243 3.34192 0.927638 4.02518 0.64374 4.77935C0.364753 5.497 0.173678 6.31961 0.118957 7.52212C0.0642358 8.72464 0.0507798 9.11128 0.0507793 12.1801C0.0507787 15.249 0.0637861 15.6338 0.118955 16.839C0.174125 18.0443 0.364751 18.8633 0.643738 19.5809C0.92775 20.3348 1.37254 21.0177 1.94717 21.5823C2.51181 22.1574 3.19511 22.6023 3.94942 22.8862C4.66707 23.1656 5.48968 23.3567 6.6922 23.4114C7.89471 23.4661 8.28224 23.4796 11.3511 23.4796C14.42 23.4796 14.8048 23.4666 16.01 23.4114C17.2152 23.3562 18.0333 23.1656 18.751 22.8862C19.5019 22.5961 20.1838 22.1521 20.753 21.5829C21.3222 21.0137 21.7661 20.3318 22.0562 19.5809C22.3357 18.8633 22.5267 18.0407 22.5815 16.8382C22.6362 15.6356 22.6496 15.2481 22.6496 12.1792C22.6496 9.11038 22.6366 8.72554 22.5815 7.52033C22.5263 6.31513 22.3357 5.497 22.0562 4.77935C21.7726 4.02544 21.3279 3.34246 20.7532 2.778C20.1885 2.20293 19.5052 1.75782 18.751 1.47366C18.0333 1.19468 17.2107 1.0036 16.0082 0.94888C14.8057 0.894159 14.4191 0.880703 11.3502 0.880702L11.352 0.878908Z" fill="#F2F4F8"/>
<path d="M11.3491 6.37793C10.2015 6.37793 9.07973 6.71822 8.12556 7.35578C7.17139 7.99334 6.4277 8.89952 5.98854 9.95974C5.54939 11.02 5.43448 12.1866 5.65836 13.3121C5.88224 14.4376 6.43485 15.4715 7.24631 16.2829C8.05776 17.0944 9.09162 17.647 10.2171 17.8709C11.3427 18.0948 12.5093 17.9799 13.5695 17.5407C14.6297 17.1015 15.5359 16.3579 16.1735 15.4037C16.811 14.4495 17.1513 13.3277 17.1513 12.1802C17.1514 11.4182 17.0013 10.6637 16.7098 9.95967C16.4182 9.25568 15.9908 8.61603 15.452 8.07723C14.9132 7.53843 14.2736 7.11105 13.5696 6.81948C12.8656 6.52791 12.1111 6.37787 11.3491 6.37793ZM11.3491 15.9478C10.6039 15.9478 9.87548 15.7269 9.25589 15.3129C8.6363 14.8989 8.15338 14.3104 7.86822 13.622C7.58305 12.9335 7.50844 12.176 7.65382 11.4451C7.79919 10.7143 8.15803 10.0429 8.68495 9.516C9.21187 8.98908 9.8832 8.63025 10.6141 8.48487C11.3449 8.33949 12.1025 8.41411 12.7909 8.69927C13.4794 8.98444 14.0678 9.46735 14.4818 10.0869C14.8958 10.7065 15.1168 11.435 15.1168 12.1802C15.1168 13.1794 14.7198 14.1377 14.0132 14.8443C13.3067 15.5509 12.3483 15.9478 11.3491 15.9478Z" fill="#F2F4F8"/>
<path d="M17.3833 7.5048C18.1321 7.5048 18.7392 6.89773 18.7392 6.14888C18.7392 5.40003 18.1321 4.79297 17.3833 4.79297C16.6344 4.79297 16.0273 5.40003 16.0273 6.14888C16.0273 6.89773 16.6344 7.5048 17.3833 7.5048Z" fill="#F2F4F8"/>
</svg>
