<svg width="28" height="22" viewBox="0 0 28 22" fill="none" xmlns="http://www.w3.org/2000/svg">
<path d="M8.54257 21.8789C18.7313 21.8789 24.3037 13.8026 24.3037 6.79914C24.3037 6.5705 24.2983 6.34222 24.2876 6.1143C25.3717 5.36232 26.3074 4.43176 27.0508 3.36613C26.0396 3.79426 24.9673 4.07547 23.8694 4.20047C25.0256 3.53799 25.8908 2.49609 26.304 1.26873C25.2168 1.88589 24.0274 2.32085 22.7871 2.55487C21.9524 1.70306 20.8472 1.13864 19.643 0.949187C18.4388 0.759733 17.2029 0.955838 16.1271 1.50707C15.0513 2.05831 14.1957 2.93386 13.6931 3.99786C13.1905 5.06186 13.069 6.25482 13.3474 7.39165C11.1448 7.28642 8.98993 6.73907 7.02279 5.78514C5.05566 4.83121 3.32025 3.49205 1.92929 1.85463C1.22089 3.0213 1.00383 4.40241 1.3223 5.71681C1.64077 7.03121 2.47084 8.18008 3.6435 8.92952C2.76391 8.90531 1.9033 8.67909 1.13423 8.26996C1.13423 8.29195 1.13423 8.31393 1.13423 8.33812C1.1349 9.56181 1.57788 10.7476 2.38807 11.6945C3.19826 12.6414 4.32578 13.291 5.57946 13.5333C4.76362 13.7465 3.90751 13.7777 3.07708 13.6245C3.43094 14.6768 4.11934 15.5972 5.0462 16.2571C5.97307 16.9171 7.09215 17.2838 8.24729 17.3059C6.28587 18.7773 3.86448 19.5752 1.37205 19.5715C0.930532 19.5719 0.489363 19.5476 0.050778 19.499C2.58402 21.0555 5.53192 21.8817 8.54257 21.8789Z" fill="#F2F4F8"/>
</svg>
