<svg width="33" height="24" viewBox="0 0 33 24" fill="none" xmlns="http://www.w3.org/2000/svg">
<path d="M32.2725 4.40185C32.0887 3.71726 31.7282 3.09303 31.2269 2.59182C30.7257 2.0906 30.1015 1.73003 29.4169 1.54628C26.899 0.878911 16.7981 0.878909 16.7981 0.878909C16.7981 0.878909 6.6946 0.878907 4.17936 1.55425C3.49559 1.73764 2.87185 2.09708 2.37034 2.59673C1.86882 3.09637 1.50706 3.71877 1.32112 4.40185C0.648436 6.92241 0.648436 12.1762 0.648436 12.1762C0.648436 12.1762 0.648434 17.4327 1.32112 19.9506C1.50534 20.6354 1.8664 21.2597 2.36807 21.761C2.86974 22.2622 3.49439 22.6226 4.17935 22.8062C6.69726 23.4789 16.7981 23.4789 16.7981 23.4789C16.7981 23.4789 26.9017 23.4789 29.4169 22.8036C30.1014 22.6205 30.7257 22.2605 31.227 21.7597C31.7282 21.2589 32.0888 20.635 32.2725 19.9507C32.9478 17.4327 32.9478 12.1763 32.9478 12.1763C32.9478 12.1763 32.9478 6.92242 32.2725 4.40185ZM13.5677 17.0206L13.5677 7.33187L21.9589 12.1763L13.5677 17.0206Z" fill="#F2F4F8"/>
</svg>
